<svg width="112" height="37" viewBox="0 0 112 37" fill="none" xmlns="http://www.w3.org/2000/svg">
<g clip-path="url(#clip0_824_1538)">
<mask id="mask0_824_1538" style="mask-type:luminance" maskUnits="userSpaceOnUse" x="0" y="0" width="112" height="36">
<path d="M111.504 0.48053H0.240723V35.8187H111.504V0.48053Z" fill="white"/>
</mask>
<g mask="url(#mask0_824_1538)">
<path d="M111.504 0.48053H0.240723V35.8187H111.504V0.48053Z" fill="white"/>
<path d="M102.752 0.480637H10.3405C10.0037 0.480637 9.67088 0.480637 9.33487 0.482403C9.05368 0.48417 8.77471 0.489294 8.49078 0.493623C7.87394 0.500601 7.25858 0.552789 6.65 0.649729C6.04228 0.748781 5.45359 0.935527 4.90384 1.20366C4.35479 1.47406 3.85311 1.82541 3.41701 2.24498C2.9786 2.66333 2.61316 3.14688 2.33473 3.67705C2.0555 4.20623 1.86191 4.77327 1.7606 5.35861C1.65833 5.9432 1.60328 6.53453 1.596 7.12729C1.58745 7.39817 1.58653 7.6699 1.58203 7.94085V28.3611C1.58653 28.6354 1.58745 28.9012 1.596 29.1756C1.6033 29.7684 1.65833 30.3596 1.7606 30.9443C1.86164 31.5299 2.05525 32.0972 2.33473 32.6265C2.61302 33.1551 2.97853 33.6366 3.41701 34.0527C3.85146 34.4741 4.35346 34.8257 4.90384 35.094C5.45358 35.3628 6.04221 35.5507 6.65 35.6513C7.25869 35.7473 7.87398 35.7996 8.49078 35.8076C8.77462 35.8135 9.05368 35.817 9.33496 35.817C9.67088 35.8187 10.0037 35.8187 10.3405 35.8187H102.751C103.081 35.8187 103.416 35.8187 103.747 35.817C104.027 35.817 104.314 35.8135 104.594 35.8076C105.209 35.8001 105.824 35.7479 106.431 35.6513C107.04 35.55 107.632 35.3622 108.184 35.094C108.734 34.8256 109.236 34.474 109.669 34.0527C110.107 33.6351 110.473 33.1538 110.755 32.6265C111.032 32.0968 111.224 31.5296 111.324 30.9443C111.426 30.3595 111.483 29.7684 111.495 29.1755C111.497 28.9012 111.497 28.6354 111.497 28.3611C111.505 28.0403 111.505 27.721 111.505 27.3949V8.90541C111.505 8.58181 111.505 8.26094 111.497 7.94085C111.497 7.6699 111.497 7.39816 111.495 7.12719C111.483 6.53439 111.426 5.94318 111.324 5.35853C111.223 4.77357 111.032 4.20665 110.755 3.67713C110.188 2.61439 109.289 1.7493 108.184 1.20356C107.632 0.936098 107.04 0.7494 106.431 0.649641C105.824 0.552288 105.209 0.500098 104.594 0.493534C104.314 0.489206 104.027 0.483994 103.747 0.482315C103.416 0.480549 103.081 0.480637 102.752 0.480637Z" fill="black"/>
<path d="M9.80812 34.5082C9.53103 34.5082 9.26064 34.5048 8.98571 34.4991C8.41621 34.492 7.84802 34.4455 7.28584 34.3595C6.76162 34.2747 6.2538 34.1166 5.77913 33.8909C5.3088 33.6669 4.87981 33.3733 4.50861 33.0213C4.13201 32.6735 3.81846 32.2699 3.58042 31.8267C3.33976 31.3807 3.17321 30.9027 3.08659 30.4092C2.99306 29.879 2.94247 29.3427 2.93524 28.8054C2.92942 28.625 2.92188 28.0244 2.92188 28.0244V8.26415C2.92188 8.26415 2.92988 7.67273 2.93524 7.49891C2.94217 6.96233 2.99249 6.42702 3.08576 5.89762C3.17257 5.40279 3.33926 4.92333 3.58005 4.47586C3.8172 4.03302 4.12895 3.6292 4.50324 3.28003C4.87715 2.92753 5.30752 2.63241 5.77868 2.40538C6.25227 2.18033 6.75913 2.02349 7.28229 1.94014C7.84633 1.85341 8.4165 1.80655 8.98798 1.79994L9.8086 1.78934H103.272L104.104 1.80019C104.669 1.80652 105.234 1.85301 105.793 1.93928C106.322 2.0237 106.834 2.18165 107.313 2.40795C108.257 2.86545 109.025 3.58925 109.509 4.47792C109.746 4.92232 109.91 5.39788 109.996 5.88846C110.091 6.42221 110.143 6.9617 110.154 7.50267C110.157 7.74493 110.157 8.00513 110.157 8.26415C110.164 8.58491 110.164 8.89021 110.164 9.19806V27.1002C110.164 27.411 110.164 27.7143 110.157 28.0199C110.157 28.2981 110.157 28.5529 110.153 28.8153C110.142 29.3465 110.091 29.8765 109.998 30.4007C109.913 30.8978 109.747 31.3795 109.506 31.8293C109.267 32.2675 108.955 32.6676 108.583 33.0145C108.212 33.3684 107.782 33.6638 107.31 33.8892C106.833 34.1167 106.322 34.2753 105.793 34.3594C105.232 34.4458 104.663 34.4926 104.093 34.4989C103.822 34.505 103.549 34.508 103.277 34.5082L102.291 34.5099L9.80812 34.5082Z" fill="black"/>
<path d="M23.8423 19.0728C23.852 18.3269 24.0547 17.5954 24.4311 16.9465C24.8074 16.2977 25.3456 15.7525 25.995 15.3619C25.5823 14.7851 25.0379 14.3105 24.405 13.9758C23.7722 13.641 23.0683 13.4553 22.3491 13.4332C20.8151 13.2756 19.3279 14.3313 18.5461 14.3313C17.7493 14.3313 16.5458 13.4488 15.2498 13.4749C14.4114 13.5015 13.5944 13.7399 12.8784 14.1672C12.1623 14.5945 11.5716 15.196 11.1636 15.9131C9.39694 18.9059 10.7148 23.3044 12.4073 25.7235C13.254 26.9082 14.2434 28.2313 15.5384 28.1845C16.8055 28.133 17.2787 27.3938 18.8083 27.3938C20.3235 27.3938 20.7675 28.1845 22.0886 28.1546C23.4483 28.133 24.3049 26.9648 25.122 25.769C25.7303 24.925 26.1985 23.9921 26.509 23.0048C25.7192 22.6778 25.0452 22.1308 24.5708 21.4316C24.0966 20.7323 23.8432 19.9121 23.8423 19.0728ZM21.3469 11.8422C22.0883 10.9714 22.4535 9.85223 22.3651 8.72224C21.2324 8.83864 20.1862 9.36826 19.4349 10.2056C19.0676 10.6147 18.7862 11.0905 18.6069 11.6061C18.4276 12.1216 18.3539 12.6666 18.3901 13.2101C18.9566 13.2158 19.5171 13.0956 20.0293 12.8587C20.5414 12.6217 20.992 12.2742 21.3469 11.8422ZM39.8593 25.1855H35.5353L34.497 28.1856H32.6653L36.7611 17.0862H38.6639L42.7596 28.1856H40.8968L39.8593 25.1855ZM35.9831 23.8011H39.4105L37.7211 18.9324H37.6736L35.9831 23.8011ZM51.6047 24.1399C51.6047 26.6546 50.2291 28.2701 48.1533 28.2701C47.6272 28.2972 47.1044 28.1786 46.6441 27.9282C46.1839 27.6778 45.8051 27.3057 45.5509 26.8545H45.5116V30.8625H43.8141V20.0932H45.4572V21.4392H45.4886C45.7543 20.9901 46.1394 20.62 46.6033 20.368C47.0669 20.1161 47.5919 19.9919 48.1219 20.0087C50.2211 20.0087 51.6047 21.6324 51.6047 24.1399ZM49.8598 24.1399C49.8598 22.5016 48.9945 21.4244 47.6742 21.4244C46.377 21.4244 45.5046 22.5241 45.5046 24.1398C45.5046 25.7703 46.377 26.8624 47.6742 26.8624C48.9945 26.8624 49.8598 25.7931 49.8598 24.1399ZM60.7077 24.1399C60.7077 26.6546 59.3323 28.2701 57.2562 28.2701C56.7304 28.2972 56.2073 28.1786 55.7472 27.9282C55.2869 27.6778 54.9081 27.3057 54.6539 26.8545H54.6147V30.8625H52.917V20.0932H54.5602V21.4392H54.5915C54.8573 20.9901 55.2425 20.62 55.7062 20.368C56.1699 20.1161 56.6947 19.9919 57.2251 20.0087C59.3242 20.0087 60.7077 21.6324 60.7077 24.1399ZM58.9628 24.1399C58.9628 22.5016 58.0975 21.4244 56.7772 21.4244C55.48 21.4244 54.6075 22.5241 54.6075 24.1398C54.6075 25.7703 55.48 26.8624 56.7772 26.8624C58.0975 26.8624 58.9628 25.7931 58.9628 24.1399ZM66.7242 25.093C66.8499 26.1937 67.9429 26.9163 69.4361 26.9163C70.8671 26.9163 71.8965 26.1937 71.8965 25.2011C71.8965 24.3396 71.2757 23.8238 69.8055 23.4703L68.3352 23.1238C66.2523 22.6315 65.2851 21.6784 65.2851 20.1316C65.2851 18.2166 66.9909 16.9012 69.4128 16.9012C71.8098 16.9012 73.4532 18.2166 73.5086 20.1316H71.7948C71.6922 19.024 70.7563 18.3554 69.3888 18.3554C68.0213 18.3554 67.0855 19.0319 67.0855 20.0164C67.0855 20.8012 67.6832 21.2629 69.1452 21.6164L70.3951 21.9166C72.7225 22.4551 73.6897 23.37 73.6897 24.9934C73.6897 27.07 71.9991 28.3704 69.3102 28.3704C66.7944 28.3704 65.096 27.1005 64.9863 25.0929L66.7242 25.093ZM77.3535 18.1782V20.0932H78.9263V21.4087H77.3535V25.8699C77.3535 26.5629 77.6684 26.8859 78.3598 26.8859C78.5465 26.8826 78.733 26.8697 78.9183 26.8473V28.155C78.6074 28.2118 78.2915 28.2375 77.9753 28.2317C76.3009 28.2317 75.6478 27.6165 75.6478 26.047V21.4087H74.4453V20.0932H75.6478V18.1782H77.3535ZM79.8371 24.1399C79.8371 21.5938 81.3699 19.9939 83.7598 19.9939C86.1578 19.9939 87.6832 21.5938 87.6832 24.1399C87.6832 26.6929 86.1658 28.2859 83.7598 28.2859C81.3546 28.2859 79.8371 26.6929 79.8371 24.1399ZM85.9535 24.1399C85.9535 22.3933 85.1354 21.3624 83.7598 21.3624C82.3842 21.3624 81.5669 22.4012 81.5669 24.1399C81.5669 25.8935 82.3842 26.9163 83.7598 26.9163C85.1354 26.9163 85.9535 25.8935 85.9535 24.1399ZM89.0829 20.0932H90.702V21.4706H90.7414C90.8509 21.0404 91.1086 20.6603 91.4709 20.3941C91.8331 20.1279 92.278 19.9916 92.7307 20.0087C92.9264 20.008 93.1215 20.0288 93.3123 20.0706V21.6242C93.0654 21.5505 92.8078 21.5165 92.5496 21.5238C92.303 21.5142 92.0571 21.5566 91.8289 21.6486C91.6008 21.7406 91.3955 21.8797 91.2274 22.0567C91.0593 22.2335 90.9324 22.4439 90.8553 22.6733C90.7781 22.9028 90.7527 23.1458 90.7806 23.3858V28.1856H89.0829V20.0932ZM101.139 25.8088C100.911 27.2777 99.4488 28.2859 97.5785 28.2859C95.1723 28.2859 93.679 26.7086 93.679 24.1782C93.679 21.6401 95.1803 19.9939 97.5068 19.9939C99.7955 19.9939 101.234 21.5317 101.234 23.9854V24.5545H95.3929V24.6549C95.3657 24.9526 95.4039 25.2527 95.5045 25.535C95.6052 25.8173 95.7664 26.0754 95.9766 26.2921C96.1867 26.5089 96.4418 26.6794 96.7255 26.7924C97.0082 26.9052 97.312 26.958 97.6176 26.947C98.0188 26.9838 98.4219 26.8929 98.7658 26.6877C99.1097 26.4826 99.3771 26.1743 99.5281 25.8088H101.139ZM95.4009 23.3937H99.5357C99.551 23.1257 99.5089 22.8579 99.4134 22.6064C99.3179 22.3551 99.1708 22.1258 98.9798 21.9329C98.7897 21.7401 98.5604 21.5879 98.3063 21.4857C98.0532 21.3837 97.781 21.334 97.5068 21.3397C97.2308 21.338 96.9566 21.3902 96.7006 21.4926C96.4446 21.5952 96.2125 21.7464 96.0167 21.9372C95.8209 22.1281 95.6655 22.3553 95.5598 22.6052C95.4541 22.8551 95.4001 23.1231 95.4009 23.3937ZM35.7703 8.73181C36.1264 8.70681 36.4835 8.75943 36.816 8.88583C37.1488 9.01224 37.4486 9.20932 37.6938 9.46282C37.9392 9.71635 38.124 10.02 38.2349 10.3519C38.3458 10.6837 38.3801 11.0354 38.3352 11.3819C38.3352 13.0856 37.3939 14.065 35.7703 14.065H33.8015V8.73172L35.7703 8.73181ZM34.6482 13.3108H35.6758C35.9301 13.3256 36.1845 13.2848 36.4207 13.1914C36.657 13.0977 36.8688 12.954 37.0412 12.7702C37.2133 12.5864 37.3414 12.3675 37.4162 12.1292C37.4909 11.8909 37.5104 11.6394 37.4733 11.3927C37.5078 11.147 37.4863 10.897 37.4103 10.6604C37.3344 10.4239 37.206 10.2067 37.0342 10.0244C36.8624 9.84214 36.6514 9.69922 36.4167 9.60607C36.1819 9.51293 35.9287 9.47173 35.6758 9.48547H34.6482V13.3108ZM39.2914 12.0509C39.2656 11.7864 39.2966 11.5195 39.3823 11.2674C39.468 11.0153 39.6066 10.7835 39.7894 10.5868C39.9719 10.3902 40.1946 10.2331 40.4428 10.1256C40.6913 10.0181 40.9598 9.9626 41.2314 9.9626C41.5029 9.9626 41.7714 10.0181 42.0197 10.1256C42.2681 10.2331 42.4908 10.3902 42.6735 10.5868C42.8561 10.7835 42.9947 11.0153 43.0804 11.2674C43.1661 11.5195 43.1971 11.7864 43.1712 12.0509C43.1977 12.3157 43.1671 12.583 43.0815 12.8355C42.9963 13.088 42.8577 13.3203 42.675 13.5174C42.4922 13.7145 42.2693 13.872 42.0209 13.9797C41.7723 14.0876 41.5033 14.1432 41.2314 14.1432C40.9595 14.1432 40.6906 14.0876 40.4419 13.9797C40.1932 13.872 39.9705 13.7145 39.7878 13.5174C39.605 13.3203 39.4665 13.088 39.381 12.8355C39.2955 12.583 39.2651 12.3157 39.2914 12.0509ZM42.3363 12.0509C42.3363 11.1784 41.9356 10.6682 41.2328 10.6682C40.5271 10.6682 40.1301 11.1784 40.1301 12.0509C40.1301 12.9303 40.5271 13.4366 41.2328 13.4366C41.9356 13.4366 42.3363 12.9268 42.3363 12.0509ZM48.3286 14.0649H47.4862L46.6361 11.1007H46.5719L45.7253 14.0649H44.8912L43.7573 10.0401H44.5807L45.3176 13.1112H45.3783L46.2241 10.0401H47.0028L47.8486 13.1112H47.9128L48.6461 10.0401H49.4579L48.3286 14.0649ZM50.4114 10.0402H51.1931V10.6796H51.2537C51.3565 10.45 51.5302 10.2574 51.7502 10.1288C51.9703 10.0004 52.2258 9.94214 52.4813 9.96251C52.6813 9.94776 52.8824 9.97725 53.0692 10.0489C53.2562 10.1205 53.4241 10.2323 53.561 10.376C53.6978 10.5198 53.7996 10.6918 53.8593 10.8794C53.9186 11.0669 53.9345 11.2652 53.9051 11.4594V14.0648H53.0933V11.659C53.0933 11.0122 52.806 10.6905 52.2055 10.6905C52.0696 10.6843 51.934 10.707 51.8079 10.7568C51.6817 10.8068 51.5681 10.8827 51.4749 10.9796C51.3817 11.0764 51.3108 11.192 51.2674 11.3181C51.2241 11.4442 51.2089 11.5781 51.2234 11.7103V14.0649H50.4114V10.0402ZM55.1986 8.46902H56.0104V14.0649H55.1986V8.46902ZM57.1389 12.0509C57.1131 11.7864 57.144 11.5195 57.2296 11.2672C57.3154 11.0152 57.454 10.7833 57.6368 10.5866C57.8195 10.39 58.0422 10.2328 58.2905 10.1253C58.5388 10.0178 58.8075 9.96232 59.079 9.96232C59.3506 9.96232 59.6192 10.0178 59.8676 10.1253C60.116 10.2328 60.3386 10.39 60.5213 10.5866C60.704 10.7833 60.8426 11.0152 60.9283 11.2672C61.0142 11.5195 61.045 11.7864 61.0191 12.0509C61.0454 12.3156 61.0149 12.5829 60.9294 12.8353C60.8437 13.0878 60.7052 13.32 60.5224 13.5171C60.3398 13.714 60.117 13.8715 59.8683 13.9792C59.6198 14.0867 59.3509 14.1425 59.079 14.1425C58.8072 14.1425 58.5383 14.0867 58.2897 13.9792C58.041 13.8715 57.8183 13.714 57.6355 13.5171C57.4528 13.32 57.3144 13.0878 57.2288 12.8353C57.1433 12.5829 57.1126 12.3156 57.1389 12.0509ZM60.1836 12.0509C60.1836 11.1784 59.783 10.6682 59.0801 10.6682C58.3745 10.6682 57.9775 11.1784 57.9775 12.0509C57.9775 12.9303 58.3746 13.4366 59.0801 13.4366C59.783 13.4366 60.1836 12.9268 60.1836 12.0509ZM61.8738 12.9268C61.8738 12.2023 62.4249 11.7846 63.4037 11.7252L64.5178 11.6624V11.315C64.5178 10.8899 64.2307 10.6499 63.6758 10.6499C63.2227 10.6499 62.9086 10.8127 62.8186 11.0973H62.0324C62.1154 10.4059 62.7802 9.9626 63.7132 9.9626C64.7446 9.9626 65.3263 10.4649 65.3263 11.315V14.0649H64.5446V13.4994H64.4804C64.3501 13.7022 64.1669 13.8677 63.9499 13.9786C63.7328 14.0897 63.4896 14.1423 63.245 14.1313C63.0722 14.149 62.8977 14.1308 62.7326 14.0784C62.5674 14.0259 62.4155 13.94 62.2862 13.8267C62.157 13.7133 62.0535 13.5745 61.9826 13.4195C61.9115 13.2645 61.8744 13.0967 61.8738 12.9268ZM64.5178 12.5829V12.2464L63.5134 12.3092C62.947 12.3463 62.69 12.5348 62.69 12.8896C62.69 13.2519 63.0111 13.4627 63.4527 13.4627C63.5821 13.4756 63.7129 13.4627 63.8371 13.4251C63.9614 13.3875 64.0765 13.3258 64.176 13.2437C64.2754 13.1616 64.3568 13.0608 64.4157 12.9473C64.4743 12.8337 64.5092 12.7098 64.5178 12.5829ZM66.3932 12.0509C66.3932 10.7791 67.0613 9.97345 68.1007 9.97345C68.3576 9.96184 68.6129 10.0222 68.8362 10.1472C69.0596 10.2722 69.2421 10.4568 69.362 10.6796H69.4227V8.46895H70.2345V14.0648H69.4567V13.4289H69.3924C69.2632 13.6502 69.0744 13.8326 68.8466 13.9563C68.619 14.0801 68.361 14.1406 68.1007 14.1313C67.0542 14.1313 66.3932 13.3256 66.3932 12.0509ZM67.2318 12.0509C67.2318 12.9044 67.6431 13.4182 68.3307 13.4182C69.0149 13.4182 69.438 12.8971 69.438 12.0543C69.438 11.2156 69.0106 10.687 68.3307 10.687C67.6474 10.687 67.2318 11.2041 67.2318 12.0509ZM73.5933 12.0509C73.5674 11.7864 73.5983 11.5195 73.6841 11.2674C73.7698 11.0153 73.9084 10.7835 74.0911 10.5868C74.2738 10.3902 74.4963 10.2331 74.7447 10.1256C74.9931 10.0181 75.2616 9.9626 75.5331 9.9626C75.8048 9.9626 76.0733 10.0181 76.3217 10.1256C76.5699 10.2331 76.7926 10.3902 76.9752 10.5868C77.158 10.7835 77.2966 11.0153 77.3823 11.2674C77.468 11.5195 77.4988 11.7864 77.4731 12.0509C77.4993 12.3157 77.4689 12.583 77.3835 12.8355C77.298 13.088 77.1594 13.3203 76.9768 13.5174C76.7941 13.7145 76.5713 13.872 76.3226 13.9797C76.074 14.0876 75.8051 14.1432 75.5331 14.1432C75.2612 14.1432 74.9923 14.0876 74.7437 13.9797C74.4951 13.872 74.2723 13.7145 74.0895 13.5174C73.9069 13.3203 73.7683 13.088 73.6828 12.8355C73.5973 12.583 73.5669 12.3157 73.5933 12.0509ZM76.638 12.0509C76.638 11.1784 76.2375 10.6682 75.5345 10.6682C74.8289 10.6682 74.432 11.1784 74.432 12.0509C74.432 12.9303 74.8289 13.4366 75.5345 13.4366C76.2375 13.4366 76.638 12.9268 76.638 12.0509ZM78.5622 10.0402H79.3438V10.6796H79.4044C79.5073 10.45 79.6809 10.2574 79.901 10.1288C80.121 10.0004 80.3766 9.94214 80.632 9.96251C80.8322 9.94776 81.0331 9.97725 81.22 10.0489C81.407 10.1205 81.5749 10.2323 81.7118 10.376C81.8484 10.5198 81.9504 10.6918 82.0099 10.8794C82.0696 11.0669 82.0852 11.2652 82.0558 11.4594V14.0648H81.2439V11.659C81.2439 11.0122 80.9567 10.6905 80.3563 10.6905C80.2204 10.6843 80.0848 10.707 79.9587 10.7568C79.8326 10.8068 79.719 10.8827 79.6257 10.9796C79.5324 11.0764 79.4616 11.192 79.4182 11.3181C79.3747 11.4442 79.3597 11.5781 79.374 11.7103V14.0649H78.5624L78.5622 10.0402ZM86.6431 9.03819V10.0586H87.5343V10.7276H86.6431V12.7971C86.6431 13.2187 86.8205 13.4034 87.2248 13.4034C87.3282 13.403 87.4315 13.3969 87.5342 13.3849V14.0466C87.3884 14.0721 87.2407 14.0857 87.0926 14.0873C86.1898 14.0873 85.8303 13.7764 85.8303 13.0006V10.7276H85.1773V10.0585H85.8303V9.03829L86.6431 9.03819ZM88.643 8.46902H89.4477V10.687H89.5119C89.62 10.4552 89.7981 10.2616 90.0227 10.1325C90.2471 10.0035 90.5068 9.94538 90.7663 9.96593C90.9654 9.95537 91.1644 9.98791 91.3492 10.0612C91.534 10.1345 91.7001 10.2469 91.8354 10.3902C91.9706 10.5335 92.072 10.7043 92.132 10.8903C92.1923 11.0763 92.2096 11.273 92.183 11.4665V14.0649H91.3703V11.6624C91.3703 11.0195 91.0641 10.6939 90.4906 10.6939C90.3511 10.6828 90.2108 10.7015 90.0795 10.7489C89.9482 10.7964 89.829 10.8713 89.7303 10.9685C89.6316 11.0657 89.556 11.1828 89.5083 11.3117C89.4607 11.4405 89.4425 11.5779 89.455 11.7143V14.0649H88.643V8.46902ZM96.9165 12.9781C96.8057 13.346 96.5669 13.6642 96.2412 13.8771C95.9155 14.0899 95.5235 14.1839 95.134 14.1427C94.8631 14.1496 94.5936 14.0988 94.3448 13.9939C94.0959 13.8887 93.8732 13.7319 93.6925 13.5343C93.5117 13.3367 93.3771 13.1029 93.2979 12.8492C93.2186 12.5955 93.1968 12.328 93.2338 12.0653C93.1977 11.8017 93.22 11.5335 93.299 11.2791C93.3779 11.0247 93.512 10.7898 93.6918 10.5904C93.8716 10.391 94.0931 10.2318 94.3415 10.1234C94.5896 10.0151 94.8588 9.96022 95.1305 9.96251C96.2746 9.96251 96.9652 10.7276 96.9652 11.9914V12.2686H94.0609V12.3131C94.0481 12.4608 94.067 12.6095 94.1165 12.7495C94.166 12.8896 94.2448 13.0181 94.3479 13.1267C94.4511 13.2352 94.5764 13.3215 94.7155 13.38C94.8546 13.4384 95.0049 13.4678 95.1564 13.4661C95.3505 13.4889 95.5473 13.4547 95.7215 13.3679C95.8954 13.2809 96.0396 13.1453 96.1352 12.9781H96.9165ZM94.0609 11.6811H96.139C96.1485 11.5461 96.1304 11.4104 96.0836 11.2829C96.0368 11.1553 95.9632 11.0387 95.8687 10.9405C95.7731 10.8423 95.6576 10.7647 95.5297 10.7127C95.4019 10.6607 95.2644 10.6354 95.126 10.6386C94.9856 10.6368 94.8463 10.6626 94.7161 10.7144C94.5863 10.7662 94.468 10.8429 94.3687 10.9401C94.2694 11.0372 94.191 11.1529 94.1381 11.2802C94.0853 11.4075 94.059 11.5438 94.0609 11.6811Z" fill="white"/>
</g>
</g>
<defs>
<clipPath id="clip0_824_1538">
<rect width="111.759" height="36.1574" fill="white" transform="translate(0.240723 0.0709839)"/>
</clipPath>
</defs>
</svg>
