<svg width="110" height="37" viewBox="0 0 110 37" fill="none" xmlns="http://www.w3.org/2000/svg">
<g clip-path="url(#clip0_824_1509)">
<mask id="mask0_824_1509" style="mask-type:luminance" maskUnits="userSpaceOnUse" x="0" y="0" width="110" height="36">
<path d="M109.571 0.480759H0.346191V35.8189H109.571V0.480759Z" fill="white"/>
</mask>
<g mask="url(#mask0_824_1509)">
<mask id="mask1_824_1509" style="mask-type:luminance" maskUnits="userSpaceOnUse" x="0" y="0" width="110" height="36">
<path d="M109.572 0.480759H0.346191V35.8189H109.572V0.480759Z" fill="white"/>
</mask>
<g mask="url(#mask1_824_1509)">
<path d="M105.526 35.8189H4.39158C2.16663 35.8189 0.346191 33.8312 0.346191 31.4017V4.89805C0.346191 2.46853 2.1666 0.480759 4.39158 0.480759H105.526C107.751 0.480759 109.572 2.46853 109.572 4.89805V31.4017C109.572 33.8312 107.751 35.8189 105.526 35.8189Z" fill="black"/>
<path d="M38.7125 9.81747C38.7125 10.4902 38.5117 11.026 38.1097 11.4256C37.653 11.9008 37.0578 12.1386 36.3262 12.1386C35.6256 12.1386 35.0298 11.8978 34.5399 11.4152C34.049 10.9331 33.8042 10.3353 33.8042 9.62203C33.8042 8.90837 34.049 8.3109 34.5399 7.82839C35.0298 7.34631 35.6256 7.10507 36.3262 7.10507C36.6739 7.10507 37.0067 7.17255 37.3228 7.30713C37.6388 7.44203 37.8923 7.6211 38.0819 7.84536L37.6552 8.26909C37.3339 7.888 36.8913 7.6976 36.3262 7.6976C35.8152 7.6976 35.3733 7.8758 35.0004 8.23243C34.6275 8.58943 34.4409 9.05238 34.4409 9.62203C34.4409 10.1916 34.6275 10.6545 35.0004 11.0116C35.3733 11.3682 35.8151 11.5464 36.3262 11.5464C36.8682 11.5464 37.3203 11.3672 37.6821 11.0085C37.917 10.7747 38.0528 10.4497 38.0891 10.0326H36.3261V9.45386H38.6787C38.7012 9.57969 38.7125 9.70043 38.7125 9.81747Z" fill="white"/>
<path d="M38.7118 9.81786H38.6308C38.6302 10.4753 38.4367 10.9859 38.0517 11.3692L38.0505 11.3705C37.6084 11.8293 37.0401 12.0577 36.3256 12.0587C35.6435 12.0577 35.0727 11.8269 34.5961 11.3588C34.1205 10.8899 33.8853 10.3175 33.8844 9.62242C33.8853 8.927 34.1205 8.35485 34.5961 7.88624C35.0727 7.41792 35.6435 7.18674 36.3256 7.18576C36.6627 7.18576 36.9838 7.25108 37.2901 7.38122C37.5967 7.51236 37.8389 7.68421 38.0193 7.89757L38.0812 7.84575L38.024 7.78898L37.5973 8.21303L37.6545 8.2695L37.7168 8.21812C37.3804 7.81814 36.9083 7.61652 36.3256 7.61771C35.7956 7.61706 35.3293 7.805 34.9438 8.17516C34.5545 8.54651 34.3588 9.03552 34.3595 9.62242C34.3588 10.2093 34.5545 10.6983 34.9438 11.0697C35.3293 11.4398 35.7956 11.6277 36.3256 11.6271C36.8855 11.628 37.3628 11.4395 37.7386 11.0656C37.9896 10.8159 38.1318 10.4699 38.169 10.0398L38.1766 9.95269H36.4065V9.53454H38.678V9.45425L38.5982 9.46837C38.6203 9.59016 38.6308 9.70586 38.6308 9.81786H38.7925C38.7925 9.69578 38.7813 9.57035 38.7576 9.43989L38.7455 9.37395H36.2447V10.1133H38.0884V10.033L38.0079 10.026C37.9722 10.4302 37.8426 10.7344 37.6242 10.9522C37.2766 11.2958 36.85 11.4655 36.3256 11.4665C35.8334 11.4659 35.4161 11.2976 35.056 10.9542C34.6995 10.612 34.5222 10.1751 34.5214 9.62242C34.5222 9.0697 34.6995 8.63277 35.056 8.29055C35.4161 7.94709 35.8334 7.77896 36.3256 7.7783C36.8725 7.77961 37.2858 7.95899 37.5927 8.32129L37.6495 8.38841L38.1384 7.90256L38.1909 7.85051L38.1432 7.79428C37.9443 7.5591 37.6796 7.37241 37.354 7.23383C37.0278 7.09482 36.6837 7.02516 36.3256 7.02516C35.6062 7.02455 34.9856 7.27548 34.482 7.77206C33.9768 8.26767 33.722 8.89062 33.7227 9.62242C33.722 10.3538 33.9767 10.9772 34.4824 11.473C34.9856 11.9693 35.6062 12.2199 36.3256 12.2193C37.0746 12.2199 37.696 11.973 38.1675 11.4815L38.109 11.426L38.1662 11.4828C38.5853 11.0672 38.7931 10.5057 38.7925 9.81786H38.7118ZM42.4411 7.80529H40.2302V9.33292H42.224V9.91187H40.2302V11.4395H42.4411V12.0314H39.607V7.21342H42.4411V7.80529Z" fill="white"/>
<path d="M42.4416 7.80514V7.72483H40.1501V9.41307H42.1436V9.83118L40.1499 9.83137V11.5196H42.3606V11.951H39.6886V7.29355H42.3606V7.80514H42.4416H42.5225V7.13297H39.5269V12.1115H42.5225V11.359H40.3118V9.99199H42.3053V9.25247H40.3118V7.88544H42.5225V7.80514H42.4416ZM45.072 12.0313H44.4478V7.8051H43.0921V7.21322H46.4278V7.8051H45.072V12.0313Z" fill="white"/>
<path d="M45.0708 12.0313V11.951H44.5275V7.72483H43.1717V7.29358H46.3456V7.72483H44.9898V12.0313H45.0708H45.1517V7.88544H46.5075V7.13297H43.0098V7.8854H44.3657V12.1115H45.1517V12.0313H45.0708ZM48.8402 12.0313V7.21322H49.4639V12.0312L48.8402 12.0313Z" fill="white"/>
<path d="M48.8407 12.0313H48.9217V7.29355H49.3833V11.951H48.8407V12.0313V12.1115H49.5452V7.13297H48.7598V12.1115H48.8407V12.0313ZM52.2312 12.0313H51.607V7.8051H50.2513V7.21322H53.5872V7.8051H52.2312V12.0313Z" fill="white"/>
<path d="M52.2323 12.031V11.9507H51.6889V7.7246H50.3332V7.29335H53.5073V7.7246H52.1514V12.031H52.2323H52.3133V7.8852H53.6691V7.13271H50.1714V7.88515H51.5272V12.1113H52.3133V12.031H52.2323ZM56.8042 11.005C57.1636 11.3661 57.6032 11.5464 58.1231 11.5464C58.6431 11.5464 59.0828 11.3661 59.4417 11.005C59.8014 10.6439 59.9815 10.1825 59.9815 9.62203C59.9815 9.06153 59.8014 8.60003 59.4417 8.23901C59.0828 7.87797 58.6431 7.6976 58.1231 7.6976C57.6032 7.6976 57.1636 7.87797 56.8042 8.23901C56.4455 8.60003 56.2653 9.06151 56.2653 9.62203C56.2653 10.1825 56.4455 10.6439 56.8042 11.005ZM59.9031 11.4083C59.4258 11.8955 58.8323 12.1386 58.1231 12.1386C57.4133 12.1386 56.8199 11.8955 56.3437 11.4083C55.8662 10.9218 55.6285 10.3262 55.6285 9.62203C55.6285 8.91776 55.8662 8.32209 56.3437 7.83564C56.82 7.34845 57.4133 7.10507 58.1231 7.10507C58.8286 7.10507 59.4205 7.34974 59.8999 7.83878C60.3787 8.32778 60.6183 8.92216 60.6183 9.62203C60.6183 10.3262 60.3793 10.9218 59.9031 11.4083Z" fill="white"/>
<path d="M56.804 11.0054L56.7464 11.0619C57.119 11.4373 57.5841 11.628 58.1229 11.6271C58.6614 11.628 59.1267 11.4373 59.499 11.0619C59.874 10.686 60.0627 10.1999 60.0622 9.62241C60.0627 9.04497 59.874 8.55876 59.499 8.18293C59.1267 7.80746 58.6614 7.61676 58.1229 7.6177C57.5841 7.61676 57.119 7.80746 56.7464 8.18293C56.3723 8.55876 56.1832 9.04497 56.1842 9.62241C56.1832 10.1998 56.3723 10.686 56.7464 11.0619L56.804 11.0054L56.8615 10.9489C56.5183 10.6023 56.3466 10.1663 56.3459 9.62241C56.3466 9.07852 56.5183 8.6425 56.8615 8.29584C57.2079 7.94929 57.6214 7.77927 58.1229 7.77833C58.6237 7.77927 59.0383 7.94929 59.3838 8.29584C59.7277 8.6425 59.8993 9.07852 59.9 9.62241C59.8993 10.1662 59.7277 10.6023 59.3838 10.9489C59.0383 11.2955 58.6237 11.4655 58.1229 11.4664C57.6214 11.4655 57.2079 11.2955 56.8615 10.9489L56.804 11.0054ZM59.9028 11.4088L59.8451 11.3529C59.381 11.8247 58.8137 12.0577 58.1229 12.0587C57.4316 12.0577 56.8644 11.8247 56.4011 11.3529C55.9383 10.8795 55.7099 10.3087 55.7093 9.62241C55.7099 8.93605 55.9383 8.3652 56.4011 7.89186C56.8644 7.42008 57.4316 7.18673 58.1229 7.18579C58.8093 7.18673 59.3753 7.42107 59.8418 7.8953C60.3063 8.37084 60.5362 8.94079 60.5371 9.62241C60.5362 10.3087 60.307 10.8795 59.8451 11.3529L59.9028 11.4088L59.961 11.4645C60.4515 10.9646 60.6995 10.3444 60.6989 9.62241C60.6995 8.90445 60.4504 8.28555 59.9577 7.78338C59.4647 7.27923 58.8472 7.0243 58.1229 7.02516C57.3946 7.0243 56.7752 7.27804 56.2853 7.78025C55.794 8.28054 55.5467 8.90034 55.5474 9.62241C55.5467 10.3444 55.794 10.9646 56.2853 11.4648C56.7752 11.967 57.3946 12.2199 58.1229 12.2193C58.8507 12.2199 59.4701 11.9667 59.961 11.4645L59.9028 11.4088ZM61.4934 12.0314V7.21337H62.2526L64.6118 10.9615H64.6388L64.6118 10.0329V7.21337H65.2362V12.0313H64.585L62.1166 8.10164H62.0898L62.1166 9.03045V12.0313L61.4934 12.0314Z" fill="white"/>
<path d="M61.4935 12.0313H61.5745V7.29355H62.2078L64.5669 11.0416H64.7218L64.6927 10.0317V7.29358H65.1552V11.951H64.63L62.1616 8.02125H62.0069L62.0358 9.03164V11.951H61.4935V12.0313V12.1115H62.1977V9.02909L62.1708 8.09937L62.0899 8.10154V8.18184H62.1167V8.10154L62.0482 8.14423L64.5403 12.1115H65.3171V7.13297H64.531V10.0338L64.5578 10.9635L64.6388 10.9613V10.881H64.6119V10.9613L64.6805 10.9187L62.2974 7.13297H61.4127V12.1115H61.4935V12.0313ZM86.8667 25.6822H88.3764V15.6438H86.8667V25.6822ZM100.465 19.2598L98.7343 23.612H98.6824L96.8858 19.2598H95.2603L97.9532 25.3428L96.4173 28.7263H97.9928L102.143 19.2598H100.465ZM91.9031 24.5419C91.4079 24.5419 90.7186 24.2967 90.7186 23.6894C90.7186 22.9146 91.5778 22.6176 92.3189 22.6176C92.9832 22.6176 93.2947 22.7597 93.6985 22.9537C93.5811 23.8832 92.7746 24.5419 91.9031 24.5419ZM92.0852 19.0402C90.9921 19.0402 89.8603 19.5181 89.3919 20.5773L90.7315 21.1325C91.0179 20.5773 91.5512 20.3963 92.111 20.3963C92.8918 20.3963 93.6856 20.8614 93.6985 21.688V21.7911C93.4249 21.6361 92.8401 21.4036 92.124 21.4036C90.6798 21.4036 89.2088 22.1913 89.2088 23.6638C89.2088 25.0068 90.3935 25.8722 91.7202 25.8722C92.7356 25.8722 93.2947 25.4202 93.6467 24.8907H93.6985V25.6656H95.1554V21.8169C95.1554 20.0349 93.8158 19.0402 92.0852 19.0402ZM82.7549 20.4818H80.6075V17.041H82.7549C83.8836 17.041 84.5244 17.9684 84.5244 18.7613C84.5244 19.5393 83.8836 20.4818 82.7549 20.4818ZM82.7161 15.6438H79.0986V25.6822H80.6075V21.8789H82.7161C84.3893 21.8789 86.0341 20.6766 86.0341 18.7613C86.0341 16.8461 84.3893 15.6438 82.7161 15.6438ZM62.99 24.5439C61.947 24.5439 61.0737 23.6772 61.0737 22.4868C61.0737 21.2839 61.947 20.4041 62.99 20.4041C64.0196 20.4041 64.8278 21.2839 64.8278 22.4868C64.8278 23.6772 64.0196 24.5439 62.99 24.5439ZM64.7235 19.822H64.6713C64.3325 19.4209 63.6805 19.0586 62.8594 19.0586C61.1389 19.0586 59.5618 20.5592 59.5618 22.4868C59.5618 24.4015 61.1388 25.8893 62.8594 25.8893C63.6805 25.8893 64.3325 25.5268 64.6713 25.1132H64.7235V25.6047C64.7235 26.9116 64.0196 27.61 62.8857 27.61C61.9601 27.61 61.3866 26.95 61.1519 26.3939L59.8355 26.9371C60.2135 27.8428 61.2172 28.9553 62.8857 28.9553C64.6584 28.9553 66.1574 27.9202 66.1574 25.3976V19.2657H64.7235V19.822ZM67.2 25.6822H68.712V15.6434H67.2V25.6822ZM70.9411 22.3705C70.9019 21.0508 71.9707 20.3783 72.7396 20.3783C73.3396 20.3783 73.8478 20.6756 74.0167 21.1031L70.9411 22.3705ZM75.6334 21.2321C75.347 20.4686 74.4731 19.0586 72.6874 19.0586C70.9147 19.0586 69.4421 20.4428 69.4421 22.474C69.4421 24.3887 70.9019 25.8893 72.857 25.8893C74.4343 25.8893 75.347 24.9319 75.7249 24.3757L74.5517 23.5994C74.1609 24.1686 73.6261 24.5439 72.857 24.5439C72.088 24.5439 71.5405 24.1944 71.1885 23.5091L75.7895 21.6201L75.6334 21.2321ZM38.9756 20.1066V21.5555H42.4688C42.3645 22.3705 42.0907 22.9655 41.6737 23.3795C41.1655 23.8842 40.3702 24.4404 38.9756 24.4404C36.8249 24.4404 35.1435 22.7198 35.1435 20.5853C35.1435 18.4507 36.8249 16.7301 38.9756 16.7301C40.1357 16.7301 40.9827 17.1829 41.6084 17.765L42.6382 16.7432C41.7651 15.915 40.6048 15.2812 38.9756 15.2812C36.0296 15.2812 33.5532 17.6616 33.5532 20.5853C33.5532 23.5091 36.0296 25.8893 38.9756 25.8893C40.5659 25.8893 41.7651 25.372 42.7033 24.4015C43.6679 23.4441 43.9678 22.0987 43.9678 21.0122C43.9678 20.6756 43.9419 20.3655 43.8893 20.1066H38.9756ZM47.9393 24.5439C46.8962 24.5439 45.9969 23.6899 45.9969 22.474C45.9969 21.245 46.8962 20.4041 47.9393 20.4041C48.9818 20.4041 49.8813 21.245 49.8813 22.474C49.8813 23.69 48.9818 24.5439 47.9393 24.5439ZM47.9393 19.0586C46.036 19.0586 44.4849 20.4946 44.4849 22.474C44.4849 24.4404 46.036 25.8893 47.9393 25.8893C49.8422 25.8893 51.3933 24.4404 51.3933 22.474C51.3933 20.4946 49.8422 19.0586 47.9393 19.0586ZM55.4744 24.5439C54.4319 24.5439 53.5323 23.6899 53.5323 22.474C53.5323 21.245 54.4319 20.4041 55.4744 20.4041C56.517 20.4041 57.4164 21.245 57.4164 22.474C57.4164 23.69 56.517 24.5439 55.4744 24.5439ZM55.4744 19.0586C53.5711 19.0586 52.0203 20.4946 52.0203 22.474C52.0203 24.4404 53.5711 25.8893 55.4744 25.8893C57.3773 25.8893 58.9285 24.4404 58.9285 22.474C58.9285 20.4946 57.3773 19.0586 55.4744 19.0586Z" fill="white"/>
<path d="M8.84911 8.71124C8.57758 8.95437 8.41553 9.3599 8.41553 9.89817V9.77647V27.5396V27.4226C8.41553 27.9198 8.55454 28.3037 8.78996 28.5509L8.85006 28.608C9.04061 28.7786 9.28496 28.8695 9.565 28.8694C9.83864 28.8694 10.1465 28.7827 10.4714 28.5998L22.2153 21.9774L26.2493 19.7022C26.7616 19.4134 27.0492 19.0407 27.0973 18.6611V18.6597C27.0492 18.2792 26.7616 17.9068 26.2493 17.618L22.2149 15.3432L10.4714 8.72062C10.1458 8.53747 9.83778 8.45058 9.56339 8.45058C9.28368 8.45058 9.0396 8.5409 8.84911 8.71124Z" fill="#00C1FF"/>
<path d="M8.85009 28.6085L8.78996 28.5514C8.55454 28.3042 8.41553 27.9202 8.41553 27.4231V27.5401V9.78133V9.89865C8.41553 9.36034 8.57758 8.95482 8.84911 8.71169L18.8734 18.6604L8.85009 28.6085Z" fill="url(#paint0_linear_824_1509)"/>
<path d="M22.2139 21.978L18.8721 18.6606L22.2137 15.3439L26.2479 17.6186C26.7602 17.9075 27.0477 18.2798 27.0959 18.6603V18.6618C27.0477 19.0413 26.7602 19.4141 26.2479 19.7029L22.2139 21.978Z" fill="url(#paint1_linear_824_1509)"/>
<path d="M9.56402 28.8697C9.28398 28.8699 9.03964 28.7793 8.84912 28.6086L18.8725 18.6603L22.2143 21.9776L10.4704 28.6001C10.1455 28.7831 9.83766 28.8697 9.56402 28.8697Z" fill="url(#paint2_linear_824_1509)"/>
<path d="M18.8734 18.6604L8.84912 8.71171C9.03969 8.54137 9.2837 8.45103 9.56336 8.45103C9.83775 8.45103 10.1459 8.5379 10.4715 8.72109L22.215 15.3437L18.8734 18.6604Z" fill="url(#paint3_linear_824_1509)"/>
<path d="M9.56339 28.9877C9.28338 28.9877 9.03871 28.897 8.84816 28.7263L8.84532 28.7245L8.7932 28.6739C8.79156 28.6723 8.79002 28.6705 8.78809 28.6687L8.84819 28.609C9.03874 28.7797 9.28305 28.8702 9.56311 28.8699C9.83674 28.8699 10.1446 28.7835 10.4695 28.6005L22.2134 21.978L22.2887 22.0528L22.2124 22.0957L10.4695 28.7179C10.1734 28.8844 9.89172 28.9713 9.63735 28.9858C9.6127 28.987 9.58804 28.9877 9.56339 28.9877Z" fill="url(#paint4_linear_824_1509)"/>
<path d="M8.78996 28.6681C8.55454 28.4209 8.41553 28.0372 8.41553 27.5398V27.4227C8.41553 27.9198 8.55454 28.3038 8.78996 28.551L8.85006 28.6082L8.78996 28.6681Z" fill="url(#paint5_linear_824_1509)"/>
<path d="M22.2901 22.0526L22.2148 21.9778L26.2488 19.7027C26.7612 19.4139 27.0488 19.0412 27.0968 18.6617C27.0968 18.8009 27.0655 18.9402 27.0034 19.0758C26.8779 19.349 26.6263 19.607 26.2488 19.8201L22.2901 22.0526Z" fill="url(#paint6_linear_824_1509)"/>
<path d="M27.0972 18.6593C27.0491 18.279 26.7615 17.9066 26.2492 17.6177L22.2148 15.3429L22.2901 15.2682L26.2492 17.5006C26.8141 17.8193 27.0969 18.2393 27.0972 18.6593Z" fill="url(#paint7_linear_824_1509)"/>
<path d="M8.41553 9.89863V9.77588C8.41553 9.73164 8.41673 9.68835 8.41901 9.64638V9.64448L8.41924 9.64258V9.63791C8.44361 9.2097 8.57758 8.87569 8.78996 8.65266L8.84911 8.71159C8.57758 8.95476 8.41553 9.36028 8.41553 9.89863Z" fill="url(#paint8_linear_824_1509)"/>
<path d="M22.2131 15.3434L10.4695 8.72084C10.1439 8.53771 9.8358 8.45084 9.5615 8.45084C9.28178 8.45084 9.03777 8.54117 8.84724 8.7115L8.78809 8.65254C8.80656 8.63313 8.82576 8.61442 8.84564 8.59643L8.84786 8.59451C9.03688 8.42547 9.27831 8.33514 9.55555 8.33351H9.5615C9.8358 8.33351 10.1439 8.4204 10.4695 8.60363L22.2888 15.2686L22.2131 15.3434Z" fill="url(#paint9_linear_824_1509)"/>
</g>
</g>
</g>
<defs>
<linearGradient id="paint0_linear_824_1509" x1="14.8216" y1="9.59369" x2="6.26221" y2="18.2457" gradientUnits="userSpaceOnUse">
<stop stop-color="#00A0FF"/>
<stop offset="0.00657" stop-color="#00A1FF"/>
<stop offset="0.2601" stop-color="#00BEFF"/>
<stop offset="0.5122" stop-color="#00D2FF"/>
<stop offset="0.7604" stop-color="#00DFFF"/>
<stop offset="1" stop-color="#00E3FF"/>
</linearGradient>
<linearGradient id="paint1_linear_824_1509" x1="27.7201" y1="18.6034" x2="8.14286" y2="18.6034" gradientUnits="userSpaceOnUse">
<stop stop-color="#FFE000"/>
<stop offset="0.4087" stop-color="#FFBD00"/>
<stop offset="0.7754" stop-color="#FFA500"/>
<stop offset="1" stop-color="#FF9C00"/>
</linearGradient>
<linearGradient id="paint2_linear_824_1509" x1="20.4401" y1="21.8144" x2="5.93451" y2="36.3699" gradientUnits="userSpaceOnUse">
<stop stop-color="#FF3A44"/>
<stop offset="1" stop-color="#C31162"/>
</linearGradient>
<linearGradient id="paint3_linear_824_1509" x1="6.26558" y1="7.23676" x2="12.7303" y2="13.7338" gradientUnits="userSpaceOnUse">
<stop stop-color="#32A071"/>
<stop offset="0.0685" stop-color="#2DA771"/>
<stop offset="0.4762" stop-color="#15CF74"/>
<stop offset="0.8009" stop-color="#06E775"/>
<stop offset="1" stop-color="#00F076"/>
</linearGradient>
<linearGradient id="paint4_linear_824_1509" x1="20.4319" y1="24.1157" x2="8.81585" y2="35.8575" gradientUnits="userSpaceOnUse">
<stop stop-color="#CC2E36"/>
<stop offset="1" stop-color="#9C0E4E"/>
</linearGradient>
<linearGradient id="paint5_linear_824_1509" x1="9.75089" y1="9.59333" x2="2.21014" y2="17.2159" gradientUnits="userSpaceOnUse">
<stop stop-color="#008DE0"/>
<stop offset="0.00657" stop-color="#008DE0"/>
<stop offset="0.2601" stop-color="#00A7E0"/>
<stop offset="0.5122" stop-color="#00B8E0"/>
<stop offset="0.7604" stop-color="#00C4E0"/>
<stop offset="1" stop-color="#00C7E0"/>
</linearGradient>
<linearGradient id="paint6_linear_824_1509" x1="27.721" y1="18.6609" x2="8.14381" y2="18.6609" gradientUnits="userSpaceOnUse">
<stop stop-color="#E0C500"/>
<stop offset="0.4087" stop-color="#E0A600"/>
<stop offset="0.7754" stop-color="#E09100"/>
<stop offset="1" stop-color="#E08900"/>
</linearGradient>
<linearGradient id="paint7_linear_824_1509" x1="27.7214" y1="18.6602" x2="8.14416" y2="18.6602" gradientUnits="userSpaceOnUse">
<stop stop-color="#FFE840"/>
<stop offset="0.4087" stop-color="#FFCE40"/>
<stop offset="0.7754" stop-color="#FFBC40"/>
<stop offset="1" stop-color="#FFB540"/>
</linearGradient>
<linearGradient id="paint8_linear_824_1509" x1="9.74267" y1="9.60728" x2="2.47658" y2="16.6339" gradientUnits="userSpaceOnUse">
<stop stop-color="#40B8FF"/>
<stop offset="0.00657" stop-color="#40B9FF"/>
<stop offset="0.2601" stop-color="#40CEFF"/>
<stop offset="0.5122" stop-color="#40DDFF"/>
<stop offset="0.7604" stop-color="#40E7FF"/>
<stop offset="1" stop-color="#40EAFF"/>
</linearGradient>
<linearGradient id="paint9_linear_824_1509" x1="6.24905" y1="9.34052" x2="11.4362" y2="14.5838" gradientUnits="userSpaceOnUse">
<stop stop-color="#65B895"/>
<stop offset="0.0685" stop-color="#62BD95"/>
<stop offset="0.4762" stop-color="#50DB97"/>
<stop offset="0.8009" stop-color="#44ED98"/>
<stop offset="1" stop-color="#40F498"/>
</linearGradient>
<clipPath id="clip0_824_1509">
<rect width="109.568" height="36.1574" fill="white" transform="translate(0.00292969 0.0709839)"/>
</clipPath>
</defs>
</svg>
