<svg width="110" height="110" viewBox="0 0 110 110" fill="none" xmlns="http://www.w3.org/2000/svg">
<rect width="110" height="110" fill="white"/>
<rect width="104.5" height="104.5" transform="translate(3.2998 3.3)" fill="white"/>
<rect width="104.5" height="104.5" transform="translate(3.2998 3.3)" fill="white"/>
<path d="M8.52484 36.3917H5.0415V39.875H8.52484V36.3917Z" fill="black"/>
<path d="M8.52484 39.875H5.0415V43.3583H8.52484V39.875Z" fill="black"/>
<path d="M8.52484 46.8417H5.0415V50.325H8.52484V46.8417Z" fill="black"/>
<path d="M8.52484 53.8083H5.0415V57.2917H8.52484V53.8083Z" fill="black"/>
<path d="M8.52484 57.2917H5.0415V60.775H8.52484V57.2917Z" fill="black"/>
<path d="M8.52484 64.2583H5.0415V67.7417H8.52484V64.2583Z" fill="black"/>
<path d="M8.52484 67.7417H5.0415V71.225H8.52484V67.7417Z" fill="black"/>
<path d="M8.52484 71.225H5.0415V74.7083H8.52484V71.225Z" fill="black"/>
<path d="M12.0082 50.325H8.5249V53.8083H12.0082V50.325Z" fill="black"/>
<path d="M12.0082 53.8083H8.5249V57.2917H12.0082V53.8083Z" fill="black"/>
<path d="M12.0082 60.775H8.5249V64.2583H12.0082V60.775Z" fill="black"/>
<path d="M12.0082 74.7083H8.5249V78.1917H12.0082V74.7083Z" fill="black"/>
<path d="M15.4916 32.9083H12.0083V36.3917H15.4916V32.9083Z" fill="black"/>
<path d="M15.4916 36.3917H12.0083V39.875H15.4916V36.3917Z" fill="black"/>
<path d="M15.4916 39.875H12.0083V43.3583H15.4916V39.875Z" fill="black"/>
<path d="M15.4916 43.3583H12.0083V46.8417H15.4916V43.3583Z" fill="black"/>
<path d="M15.4916 46.8417H12.0083V50.325H15.4916V46.8417Z" fill="black"/>
<path d="M15.4916 64.2583H12.0083V67.7417H15.4916V64.2583Z" fill="black"/>
<path d="M15.4916 67.7417H12.0083V71.225H15.4916V67.7417Z" fill="black"/>
<path d="M15.4916 71.225H12.0083V74.7083H15.4916V71.225Z" fill="black"/>
<path d="M15.4916 74.7083H12.0083V78.1917H15.4916V74.7083Z" fill="black"/>
<path d="M18.975 43.3583H15.4917V46.8417H18.975V43.3583Z" fill="black"/>
<path d="M18.975 57.2917H15.4917V60.775H18.975V57.2917Z" fill="black"/>
<path d="M18.975 67.7417H15.4917V71.225H18.975V67.7417Z" fill="black"/>
<path d="M18.975 71.225H15.4917V74.7083H18.975V71.225Z" fill="black"/>
<path d="M22.4579 32.9083H18.9746V36.3917H22.4579V32.9083Z" fill="black"/>
<path d="M22.4579 36.3917H18.9746V39.875H22.4579V36.3917Z" fill="black"/>
<path d="M22.4579 39.875H18.9746V43.3583H22.4579V39.875Z" fill="black"/>
<path d="M22.4579 60.775H18.9746V64.2583H22.4579V60.775Z" fill="black"/>
<path d="M22.4579 74.7083H18.9746V78.1917H22.4579V74.7083Z" fill="black"/>
<path d="M25.9413 32.9083H22.458V36.3917H25.9413V32.9083Z" fill="black"/>
<path d="M25.9413 39.875H22.458V43.3583H25.9413V39.875Z" fill="black"/>
<path d="M25.9413 46.8417H22.458V50.325H25.9413V46.8417Z" fill="black"/>
<path d="M25.9413 50.325H22.458V53.8083H25.9413V50.325Z" fill="black"/>
<path d="M25.9413 60.775H22.458V64.2583H25.9413V60.775Z" fill="black"/>
<path d="M25.9413 67.7417H22.458V71.225H25.9413V67.7417Z" fill="black"/>
<path d="M25.9413 71.225H22.458V74.7083H25.9413V71.225Z" fill="black"/>
<path d="M29.4247 32.9083H25.9414V36.3917H29.4247V32.9083Z" fill="black"/>
<path d="M29.4247 39.875H25.9414V43.3583H29.4247V39.875Z" fill="black"/>
<path d="M29.4247 46.8417H25.9414V50.325H29.4247V46.8417Z" fill="black"/>
<path d="M29.4247 53.8083H25.9414V57.2917H29.4247V53.8083Z" fill="black"/>
<path d="M29.4247 60.775H25.9414V64.2583H29.4247V60.775Z" fill="black"/>
<path d="M29.4247 67.7417H25.9414V71.225H29.4247V67.7417Z" fill="black"/>
<path d="M29.4247 74.7083H25.9414V78.1917H29.4247V74.7083Z" fill="black"/>
<path d="M32.9081 36.3917H29.4248V39.875H32.9081V36.3917Z" fill="black"/>
<path d="M32.9081 39.875H29.4248V43.3583H32.9081V39.875Z" fill="black"/>
<path d="M32.9081 46.8417H29.4248V50.325H32.9081V46.8417Z" fill="black"/>
<path d="M32.9081 53.8083H29.4248V57.2917H32.9081V53.8083Z" fill="black"/>
<path d="M32.9081 64.2583H29.4248V67.7417H32.9081V64.2583Z" fill="black"/>
<path d="M32.9081 67.7417H29.4248V71.225H32.9081V67.7417Z" fill="black"/>
<path d="M32.9081 74.7083H29.4248V78.1917H32.9081V74.7083Z" fill="black"/>
<path d="M36.3915 8.52501H32.9082V12.0083H36.3915V8.52501Z" fill="black"/>
<path d="M36.3915 18.975H32.9082V22.4583H36.3915V18.975Z" fill="black"/>
<path d="M36.3915 25.9417H32.9082V29.425H36.3915V25.9417Z" fill="black"/>
<path d="M36.3915 32.9083H32.9082V36.3917H36.3915V32.9083Z" fill="black"/>
<path d="M36.3915 36.3917H32.9082V39.875H36.3915V36.3917Z" fill="black"/>
<path d="M36.3915 53.8083H32.9082V57.2917H36.3915V53.8083Z" fill="black"/>
<path d="M36.3915 60.775H32.9082V64.2583H36.3915V60.775Z" fill="black"/>
<path d="M36.3915 67.7417H32.9082V71.225H36.3915V67.7417Z" fill="black"/>
<path d="M36.3915 71.225H32.9082V74.7083H36.3915V71.225Z" fill="black"/>
<path d="M36.3915 74.7083H32.9082V78.1917H36.3915V74.7083Z" fill="black"/>
<path d="M36.3915 78.1917H32.9082V81.675H36.3915V78.1917Z" fill="black"/>
<path d="M36.3915 85.1583H32.9082V88.6417H36.3915V85.1583Z" fill="black"/>
<path d="M36.3915 88.6417H32.9082V92.125H36.3915V88.6417Z" fill="black"/>
<path d="M36.3915 95.6083H32.9082V99.0917H36.3915V95.6083Z" fill="black"/>
<path d="M39.8749 8.52501H36.3916V12.0083H39.8749V8.52501Z" fill="black"/>
<path d="M39.8749 15.4917H36.3916V18.975H39.8749V15.4917Z" fill="black"/>
<path d="M39.8749 18.975H36.3916V22.4583H39.8749V18.975Z" fill="black"/>
<path d="M39.8749 29.425H36.3916V32.9083H39.8749V29.425Z" fill="black"/>
<path d="M39.8749 36.3917H36.3916V39.875H39.8749V36.3917Z" fill="black"/>
<path d="M39.8749 39.875H36.3916V43.3583H39.8749V39.875Z" fill="black"/>
<path d="M39.8749 43.3583H36.3916V46.8417H39.8749V43.3583Z" fill="black"/>
<path d="M39.8749 46.8417H36.3916V50.325H39.8749V46.8417Z" fill="black"/>
<path d="M39.8749 50.325H36.3916V53.8083H39.8749V50.325Z" fill="black"/>
<path d="M39.8749 60.775H36.3916V64.2583H39.8749V60.775Z" fill="black"/>
<path d="M39.8749 71.225H36.3916V74.7083H39.8749V71.225Z" fill="black"/>
<path d="M39.8749 74.7083H36.3916V78.1917H39.8749V74.7083Z" fill="black"/>
<path d="M39.8749 78.1917H36.3916V81.675H39.8749V78.1917Z" fill="black"/>
<path d="M39.8749 85.1583H36.3916V88.6417H39.8749V85.1583Z" fill="black"/>
<path d="M39.8749 88.6417H36.3916V92.125H39.8749V88.6417Z" fill="black"/>
<path d="M39.8749 99.0917H36.3916V102.575H39.8749V99.0917Z" fill="black"/>
<path d="M39.8749 102.575H36.3916V106.058H39.8749V102.575Z" fill="black"/>
<path d="M43.3583 5.04167H39.875V8.52501H43.3583V5.04167Z" fill="black"/>
<path d="M43.3583 8.52501H39.875V12.0083H43.3583V8.52501Z" fill="black"/>
<path d="M43.3583 12.0083H39.875V15.4917H43.3583V12.0083Z" fill="black"/>
<path d="M43.3583 15.4917H39.875V18.975H43.3583V15.4917Z" fill="black"/>
<path d="M43.3583 18.975H39.875V22.4583H43.3583V18.975Z" fill="black"/>
<path d="M43.3583 25.9417H39.875V29.425H43.3583V25.9417Z" fill="black"/>
<path d="M43.3583 32.9083H39.875V36.3917H43.3583V32.9083Z" fill="black"/>
<path d="M43.3583 36.3917H39.875V39.875H43.3583V36.3917Z" fill="black"/>
<path d="M43.3583 46.8417H39.875V50.325H43.3583V46.8417Z" fill="black"/>
<path d="M43.3583 50.325H39.875V53.8083H43.3583V50.325Z" fill="black"/>
<path d="M43.3583 53.8083H39.875V57.2917H43.3583V53.8083Z" fill="black"/>
<path d="M43.3583 57.2917H39.875V60.775H43.3583V57.2917Z" fill="black"/>
<path d="M43.3583 60.775H39.875V64.2583H43.3583V60.775Z" fill="black"/>
<path d="M43.3583 64.2583H39.875V67.7417H43.3583V64.2583Z" fill="black"/>
<path d="M43.3583 78.1917H39.875V81.675H43.3583V78.1917Z" fill="black"/>
<path d="M43.3583 85.1583H39.875V88.6417H43.3583V85.1583Z" fill="black"/>
<path d="M43.3583 88.6417H39.875V92.125H43.3583V88.6417Z" fill="black"/>
<path d="M43.3583 92.125H39.875V95.6083H43.3583V92.125Z" fill="black"/>
<path d="M43.3583 95.6083H39.875V99.0917H43.3583V95.6083Z" fill="black"/>
<path d="M43.3583 102.575H39.875V106.058H43.3583V102.575Z" fill="black"/>
<path d="M46.8417 8.52501H43.3584V12.0083H46.8417V8.52501Z" fill="black"/>
<path d="M46.8417 12.0083H43.3584V15.4917H46.8417V12.0083Z" fill="black"/>
<path d="M46.8417 18.975H43.3584V22.4583H46.8417V18.975Z" fill="black"/>
<path d="M46.8417 22.4583H43.3584V25.9417H46.8417V22.4583Z" fill="black"/>
<path d="M46.8417 32.9083H43.3584V36.3917H46.8417V32.9083Z" fill="black"/>
<path d="M46.8417 36.3917H43.3584V39.875H46.8417V36.3917Z" fill="black"/>
<path d="M46.8417 50.325H43.3584V53.8083H46.8417V50.325Z" fill="black"/>
<path d="M46.8417 57.2917H43.3584V60.775H46.8417V57.2917Z" fill="black"/>
<path d="M46.8417 60.775H43.3584V64.2583H46.8417V60.775Z" fill="black"/>
<path d="M46.8417 64.2583H43.3584V67.7417H46.8417V64.2583Z" fill="black"/>
<path d="M46.8417 67.7417H43.3584V71.225H46.8417V67.7417Z" fill="black"/>
<path d="M46.8417 71.225H43.3584V74.7083H46.8417V71.225Z" fill="black"/>
<path d="M46.8417 78.1917H43.3584V81.675H46.8417V78.1917Z" fill="black"/>
<path d="M46.8417 88.6417H43.3584V92.125H46.8417V88.6417Z" fill="black"/>
<path d="M46.8417 92.125H43.3584V95.6083H46.8417V92.125Z" fill="black"/>
<path d="M46.8417 99.0917H43.3584V102.575H46.8417V99.0917Z" fill="black"/>
<path d="M46.8417 102.575H43.3584V106.058H46.8417V102.575Z" fill="black"/>
<path d="M50.3246 18.975H46.8413V22.4583H50.3246V18.975Z" fill="black"/>
<path d="M50.3246 25.9417H46.8413V29.425H50.3246V25.9417Z" fill="black"/>
<path d="M50.3246 32.9083H46.8413V36.3917H50.3246V32.9083Z" fill="black"/>
<path d="M50.3246 50.325H46.8413V53.8083H50.3246V50.325Z" fill="black"/>
<path d="M50.3246 53.8083H46.8413V57.2917H50.3246V53.8083Z" fill="black"/>
<path d="M50.3246 57.2917H46.8413V60.775H50.3246V57.2917Z" fill="black"/>
<path d="M50.3246 60.775H46.8413V64.2583H50.3246V60.775Z" fill="black"/>
<path d="M50.3246 64.2583H46.8413V67.7417H50.3246V64.2583Z" fill="black"/>
<path d="M50.3246 71.225H46.8413V74.7083H50.3246V71.225Z" fill="black"/>
<path d="M50.3246 74.7083H46.8413V78.1917H50.3246V74.7083Z" fill="black"/>
<path d="M50.3246 85.1583H46.8413V88.6417H50.3246V85.1583Z" fill="black"/>
<path d="M50.3246 92.125H46.8413V95.6083H50.3246V92.125Z" fill="black"/>
<path d="M50.3246 95.6083H46.8413V99.0917H50.3246V95.6083Z" fill="black"/>
<path d="M50.3246 102.575H46.8413V106.058H50.3246V102.575Z" fill="black"/>
<path d="M53.808 8.52501H50.3247V12.0083H53.808V8.52501Z" fill="black"/>
<path d="M53.808 18.975H50.3247V22.4583H53.808V18.975Z" fill="black"/>
<path d="M53.808 22.4583H50.3247V25.9417H53.808V22.4583Z" fill="black"/>
<path d="M53.808 29.425H50.3247V32.9083H53.808V29.425Z" fill="black"/>
<path d="M53.808 32.9083H50.3247V36.3917H53.808V32.9083Z" fill="black"/>
<path d="M53.808 50.325H50.3247V53.8083H53.808V50.325Z" fill="black"/>
<path d="M53.808 60.775H50.3247V64.2583H53.808V60.775Z" fill="black"/>
<path d="M53.808 64.2583H50.3247V67.7417H53.808V64.2583Z" fill="black"/>
<path d="M53.808 81.675H50.3247V85.1583H53.808V81.675Z" fill="black"/>
<path d="M53.808 88.6417H50.3247V92.125H53.808V88.6417Z" fill="black"/>
<path d="M53.808 95.6083H50.3247V99.0917H53.808V95.6083Z" fill="black"/>
<path d="M53.808 102.575H50.3247V106.058H53.808V102.575Z" fill="black"/>
<path d="M57.2914 5.04167H53.8081V8.52501H57.2914V5.04167Z" fill="black"/>
<path d="M57.2914 12.0083H53.8081V15.4917H57.2914V12.0083Z" fill="black"/>
<path d="M57.2914 25.9417H53.8081V29.425H57.2914V25.9417Z" fill="black"/>
<path d="M57.2914 29.425H53.8081V32.9083H57.2914V29.425Z" fill="black"/>
<path d="M57.2914 32.9083H53.8081V36.3917H57.2914V32.9083Z" fill="black"/>
<path d="M57.2914 57.2917H53.8081V60.775H57.2914V57.2917Z" fill="black"/>
<path d="M57.2914 60.775H53.8081V64.2583H57.2914V60.775Z" fill="black"/>
<path d="M57.2914 67.7417H53.8081V71.225H57.2914V67.7417Z" fill="black"/>
<path d="M57.2914 74.7083H53.8081V78.1917H57.2914V74.7083Z" fill="black"/>
<path d="M57.2914 81.675H53.8081V85.1583H57.2914V81.675Z" fill="black"/>
<path d="M57.2914 88.6417H53.8081V92.125H57.2914V88.6417Z" fill="black"/>
<path d="M57.2914 99.0917H53.8081V102.575H57.2914V99.0917Z" fill="black"/>
<path d="M57.2914 102.575H53.8081V106.058H57.2914V102.575Z" fill="black"/>
<path d="M60.7748 22.4583H57.2915V25.9417H60.7748V22.4583Z" fill="black"/>
<path d="M60.7748 29.425H57.2915V32.9083H60.7748V29.425Z" fill="black"/>
<path d="M60.7748 32.9083H57.2915V36.3917H60.7748V32.9083Z" fill="black"/>
<path d="M60.7748 43.3583H57.2915V46.8417H60.7748V43.3583Z" fill="black"/>
<path d="M60.7748 60.775H57.2915V64.2583H60.7748V60.775Z" fill="black"/>
<path d="M60.7748 74.7083H57.2915V78.1917H60.7748V74.7083Z" fill="black"/>
<path d="M60.7748 85.1583H57.2915V88.6417H60.7748V85.1583Z" fill="black"/>
<path d="M60.7748 92.125H57.2915V95.6083H60.7748V92.125Z" fill="black"/>
<path d="M60.7748 102.575H57.2915V106.058H60.7748V102.575Z" fill="black"/>
<path d="M64.2582 5.04167H60.7749V8.52501H64.2582V5.04167Z" fill="black"/>
<path d="M64.2582 8.52501H60.7749V12.0083H64.2582V8.52501Z" fill="black"/>
<path d="M64.2582 12.0083H60.7749V15.4917H64.2582V12.0083Z" fill="black"/>
<path d="M64.2582 15.4917H60.7749V18.975H64.2582V15.4917Z" fill="black"/>
<path d="M64.2582 25.9417H60.7749V29.425H64.2582V25.9417Z" fill="black"/>
<path d="M64.2582 32.9083H60.7749V36.3917H64.2582V32.9083Z" fill="black"/>
<path d="M64.2582 36.3917H60.7749V39.875H64.2582V36.3917Z" fill="black"/>
<path d="M64.2582 39.875H60.7749V43.3583H64.2582V39.875Z" fill="black"/>
<path d="M64.2582 43.3583H60.7749V46.8417H64.2582V43.3583Z" fill="black"/>
<path d="M64.2582 46.8417H60.7749V50.325H64.2582V46.8417Z" fill="black"/>
<path d="M64.2582 53.8083H60.7749V57.2917H64.2582V53.8083Z" fill="black"/>
<path d="M64.2582 57.2917H60.7749V60.775H64.2582V57.2917Z" fill="black"/>
<path d="M64.2582 60.775H60.7749V64.2583H64.2582V60.775Z" fill="black"/>
<path d="M64.2582 74.7083H60.7749V78.1917H64.2582V74.7083Z" fill="black"/>
<path d="M64.2582 78.1917H60.7749V81.675H64.2582V78.1917Z" fill="black"/>
<path d="M64.2582 99.0917H60.7749V102.575H64.2582V99.0917Z" fill="black"/>
<path d="M64.2582 102.575H60.7749V106.058H64.2582V102.575Z" fill="black"/>
<path d="M67.7416 5.04167H64.2583V8.52501H67.7416V5.04167Z" fill="black"/>
<path d="M67.7416 15.4917H64.2583V18.975H67.7416V15.4917Z" fill="black"/>
<path d="M67.7416 18.975H64.2583V22.4583H67.7416V18.975Z" fill="black"/>
<path d="M67.7416 43.3583H64.2583V46.8417H67.7416V43.3583Z" fill="black"/>
<path d="M67.7416 46.8417H64.2583V50.325H67.7416V46.8417Z" fill="black"/>
<path d="M67.7416 50.325H64.2583V53.8083H67.7416V50.325Z" fill="black"/>
<path d="M67.7416 67.7417H64.2583V71.225H67.7416V67.7417Z" fill="black"/>
<path d="M67.7416 71.225H64.2583V74.7083H67.7416V71.225Z" fill="black"/>
<path d="M67.7416 78.1917H64.2583V81.675H67.7416V78.1917Z" fill="black"/>
<path d="M67.7416 81.675H64.2583V85.1583H67.7416V81.675Z" fill="black"/>
<path d="M67.7416 85.1583H64.2583V88.6417H67.7416V85.1583Z" fill="black"/>
<path d="M67.7416 88.6417H64.2583V92.125H67.7416V88.6417Z" fill="black"/>
<path d="M67.7416 92.125H64.2583V95.6083H67.7416V92.125Z" fill="black"/>
<path d="M67.7416 102.575H64.2583V106.058H67.7416V102.575Z" fill="black"/>
<path d="M71.225 18.975H67.7417V22.4583H71.225V18.975Z" fill="black"/>
<path d="M71.225 22.4583H67.7417V25.9417H71.225V22.4583Z" fill="black"/>
<path d="M71.225 25.9417H67.7417V29.425H71.225V25.9417Z" fill="black"/>
<path d="M71.225 29.425H67.7417V32.9083H71.225V29.425Z" fill="black"/>
<path d="M71.225 50.325H67.7417V53.8083H71.225V50.325Z" fill="black"/>
<path d="M71.225 57.2917H67.7417V60.775H71.225V57.2917Z" fill="black"/>
<path d="M71.225 102.575H67.7417V106.058H71.225V102.575Z" fill="black"/>
<path d="M74.7079 12.0083H71.2246V15.4917H74.7079V12.0083Z" fill="black"/>
<path d="M74.7079 18.975H71.2246V22.4583H74.7079V18.975Z" fill="black"/>
<path d="M74.7079 32.9083H71.2246V36.3917H74.7079V32.9083Z" fill="black"/>
<path d="M74.7079 50.325H71.2246V53.8083H74.7079V50.325Z" fill="black"/>
<path d="M74.7079 57.2917H71.2246V60.775H74.7079V57.2917Z" fill="black"/>
<path d="M74.7079 60.775H71.2246V64.2583H74.7079V60.775Z" fill="black"/>
<path d="M74.7079 64.2583H71.2246V67.7417H74.7079V64.2583Z" fill="black"/>
<path d="M74.7079 71.225H71.2246V74.7083H74.7079V71.225Z" fill="black"/>
<path d="M74.7079 85.1583H71.2246V88.6417H74.7079V85.1583Z" fill="black"/>
<path d="M74.7079 88.6417H71.2246V92.125H74.7079V88.6417Z" fill="black"/>
<path d="M74.7079 92.125H71.2246V95.6083H74.7079V92.125Z" fill="black"/>
<path d="M74.7079 99.0917H71.2246V102.575H74.7079V99.0917Z" fill="black"/>
<path d="M78.1913 5.04167H74.708V8.52501H78.1913V5.04167Z" fill="black"/>
<path d="M78.1913 8.52501H74.708V12.0083H78.1913V8.52501Z" fill="black"/>
<path d="M78.1913 12.0083H74.708V15.4917H78.1913V12.0083Z" fill="black"/>
<path d="M78.1913 18.975H74.708V22.4583H78.1913V18.975Z" fill="black"/>
<path d="M78.1913 22.4583H74.708V25.9417H78.1913V22.4583Z" fill="black"/>
<path d="M78.1913 25.9417H74.708V29.425H78.1913V25.9417Z" fill="black"/>
<path d="M78.1913 29.425H74.708V32.9083H78.1913V29.425Z" fill="black"/>
<path d="M78.1913 39.875H74.708V43.3583H78.1913V39.875Z" fill="black"/>
<path d="M78.1913 46.8417H74.708V50.325H78.1913V46.8417Z" fill="black"/>
<path d="M78.1913 50.325H74.708V53.8083H78.1913V50.325Z" fill="black"/>
<path d="M78.1913 64.2583H74.708V67.7417H78.1913V64.2583Z" fill="black"/>
<path d="M78.1913 67.7417H74.708V71.225H78.1913V67.7417Z" fill="black"/>
<path d="M78.1913 74.7083H74.708V78.1917H78.1913V74.7083Z" fill="black"/>
<path d="M78.1913 78.1917H74.708V81.675H78.1913V78.1917Z" fill="black"/>
<path d="M78.1913 81.675H74.708V85.1583H78.1913V81.675Z" fill="black"/>
<path d="M78.1913 85.1583H74.708V88.6417H78.1913V85.1583Z" fill="black"/>
<path d="M78.1913 88.6417H74.708V92.125H78.1913V88.6417Z" fill="black"/>
<path d="M78.1913 92.125H74.708V95.6083H78.1913V92.125Z" fill="black"/>
<path d="M78.1913 95.6083H74.708V99.0917H78.1913V95.6083Z" fill="black"/>
<path d="M78.1913 102.575H74.708V106.058H78.1913V102.575Z" fill="black"/>
<path d="M81.6747 32.9083H78.1914V36.3917H81.6747V32.9083Z" fill="black"/>
<path d="M81.6747 36.3917H78.1914V39.875H81.6747V36.3917Z" fill="black"/>
<path d="M81.6747 39.875H78.1914V43.3583H81.6747V39.875Z" fill="black"/>
<path d="M81.6747 46.8417H78.1914V50.325H81.6747V46.8417Z" fill="black"/>
<path d="M81.6747 53.8083H78.1914V57.2917H81.6747V53.8083Z" fill="black"/>
<path d="M81.6747 57.2917H78.1914V60.775H81.6747V57.2917Z" fill="black"/>
<path d="M81.6747 60.775H78.1914V64.2583H81.6747V60.775Z" fill="black"/>
<path d="M81.6747 67.7417H78.1914V71.225H81.6747V67.7417Z" fill="black"/>
<path d="M81.6747 71.225H78.1914V74.7083H81.6747V71.225Z" fill="black"/>
<path d="M81.6747 74.7083H78.1914V78.1917H81.6747V74.7083Z" fill="black"/>
<path d="M81.6747 88.6417H78.1914V92.125H81.6747V88.6417Z" fill="black"/>
<path d="M81.6747 95.6083H78.1914V99.0917H81.6747V95.6083Z" fill="black"/>
<path d="M81.6747 102.575H78.1914V106.058H81.6747V102.575Z" fill="black"/>
<path d="M85.1581 39.875H81.6748V43.3583H85.1581V39.875Z" fill="black"/>
<path d="M85.1581 43.3583H81.6748V46.8417H85.1581V43.3583Z" fill="black"/>
<path d="M85.1581 46.8417H81.6748V50.325H85.1581V46.8417Z" fill="black"/>
<path d="M85.1581 53.8083H81.6748V57.2917H85.1581V53.8083Z" fill="black"/>
<path d="M85.1581 57.2917H81.6748V60.775H85.1581V57.2917Z" fill="black"/>
<path d="M85.1581 64.2583H81.6748V67.7417H85.1581V64.2583Z" fill="black"/>
<path d="M85.1581 71.225H81.6748V74.7083H85.1581V71.225Z" fill="black"/>
<path d="M85.1581 74.7083H81.6748V78.1917H85.1581V74.7083Z" fill="black"/>
<path d="M85.1581 81.675H81.6748V85.1583H85.1581V81.675Z" fill="black"/>
<path d="M85.1581 88.6417H81.6748V92.125H85.1581V88.6417Z" fill="black"/>
<path d="M85.1581 102.575H81.6748V106.058H85.1581V102.575Z" fill="black"/>
<path d="M88.6415 43.3583H85.1582V46.8417H88.6415V43.3583Z" fill="black"/>
<path d="M88.6415 46.8417H85.1582V50.325H88.6415V46.8417Z" fill="black"/>
<path d="M88.6415 50.325H85.1582V53.8083H88.6415V50.325Z" fill="black"/>
<path d="M88.6415 60.775H85.1582V64.2583H88.6415V60.775Z" fill="black"/>
<path d="M88.6415 64.2583H85.1582V67.7417H88.6415V64.2583Z" fill="black"/>
<path d="M88.6415 67.7417H85.1582V71.225H88.6415V67.7417Z" fill="black"/>
<path d="M88.6415 71.225H85.1582V74.7083H88.6415V71.225Z" fill="black"/>
<path d="M88.6415 74.7083H85.1582V78.1917H88.6415V74.7083Z" fill="black"/>
<path d="M88.6415 88.6417H85.1582V92.125H88.6415V88.6417Z" fill="black"/>
<path d="M88.6415 92.125H85.1582V95.6083H88.6415V92.125Z" fill="black"/>
<path d="M92.1249 32.9083H88.6416V36.3917H92.1249V32.9083Z" fill="black"/>
<path d="M92.1249 39.875H88.6416V43.3583H92.1249V39.875Z" fill="black"/>
<path d="M92.1249 43.3583H88.6416V46.8417H92.1249V43.3583Z" fill="black"/>
<path d="M92.1249 46.8417H88.6416V50.325H92.1249V46.8417Z" fill="black"/>
<path d="M92.1249 67.7417H88.6416V71.225H92.1249V67.7417Z" fill="black"/>
<path d="M92.1249 71.225H88.6416V74.7083H92.1249V71.225Z" fill="black"/>
<path d="M92.1249 74.7083H88.6416V78.1917H92.1249V74.7083Z" fill="black"/>
<path d="M92.1249 78.1917H88.6416V81.675H92.1249V78.1917Z" fill="black"/>
<path d="M92.1249 81.675H88.6416V85.1583H92.1249V81.675Z" fill="black"/>
<path d="M92.1249 85.1583H88.6416V88.6417H92.1249V85.1583Z" fill="black"/>
<path d="M92.1249 88.6417H88.6416V92.125H92.1249V88.6417Z" fill="black"/>
<path d="M92.1249 99.0917H88.6416V102.575H92.1249V99.0917Z" fill="black"/>
<path d="M92.1249 102.575H88.6416V106.058H92.1249V102.575Z" fill="black"/>
<path d="M95.6083 39.875H92.125V43.3583H95.6083V39.875Z" fill="black"/>
<path d="M95.6083 46.8417H92.125V50.325H95.6083V46.8417Z" fill="black"/>
<path d="M95.6083 50.325H92.125V53.8083H95.6083V50.325Z" fill="black"/>
<path d="M95.6083 60.775H92.125V64.2583H95.6083V60.775Z" fill="black"/>
<path d="M95.6083 64.2583H92.125V67.7417H95.6083V64.2583Z" fill="black"/>
<path d="M95.6083 85.1583H92.125V88.6417H95.6083V85.1583Z" fill="black"/>
<path d="M95.6083 95.6083H92.125V99.0917H95.6083V95.6083Z" fill="black"/>
<path d="M95.6083 99.0917H92.125V102.575H95.6083V99.0917Z" fill="black"/>
<path d="M99.0917 39.875H95.6084V43.3583H99.0917V39.875Z" fill="black"/>
<path d="M99.0917 50.325H95.6084V53.8083H99.0917V50.325Z" fill="black"/>
<path d="M99.0917 53.8083H95.6084V57.2917H99.0917V53.8083Z" fill="black"/>
<path d="M99.0917 60.775H95.6084V64.2583H99.0917V60.775Z" fill="black"/>
<path d="M99.0917 67.7417H95.6084V71.225H99.0917V67.7417Z" fill="black"/>
<path d="M99.0917 71.225H95.6084V74.7083H99.0917V71.225Z" fill="black"/>
<path d="M99.0917 74.7083H95.6084V78.1917H99.0917V74.7083Z" fill="black"/>
<path d="M99.0917 78.1917H95.6084V81.675H99.0917V78.1917Z" fill="black"/>
<path d="M99.0917 99.0917H95.6084V102.575H99.0917V99.0917Z" fill="black"/>
<path d="M99.0917 102.575H95.6084V106.058H99.0917V102.575Z" fill="black"/>
<path d="M102.575 32.9083H99.0913V36.3917H102.575V32.9083Z" fill="black"/>
<path d="M102.575 36.3917H99.0913V39.875H102.575V36.3917Z" fill="black"/>
<path d="M102.575 53.8083H99.0913V57.2917H102.575V53.8083Z" fill="black"/>
<path d="M102.575 64.2583H99.0913V67.7417H102.575V64.2583Z" fill="black"/>
<path d="M102.575 74.7083H99.0913V78.1917H102.575V74.7083Z" fill="black"/>
<path d="M102.575 78.1917H99.0913V81.675H102.575V78.1917Z" fill="black"/>
<path d="M102.575 81.675H99.0913V85.1583H102.575V81.675Z" fill="black"/>
<path d="M102.575 85.1583H99.0913V88.6417H102.575V85.1583Z" fill="black"/>
<path d="M102.575 92.125H99.0913V95.6083H102.575V92.125Z" fill="black"/>
<path d="M102.575 99.0917H99.0913V102.575H102.575V99.0917Z" fill="black"/>
<path d="M102.575 102.575H99.0913V106.058H102.575V102.575Z" fill="black"/>
<path d="M106.058 36.3917H102.575V39.875H106.058V36.3917Z" fill="black"/>
<path d="M106.058 39.875H102.575V43.3583H106.058V39.875Z" fill="black"/>
<path d="M106.058 43.3583H102.575V46.8417H106.058V43.3583Z" fill="black"/>
<path d="M106.058 50.325H102.575V53.8083H106.058V50.325Z" fill="black"/>
<path d="M106.058 57.2917H102.575V60.775H106.058V57.2917Z" fill="black"/>
<path d="M106.058 64.2583H102.575V67.7417H106.058V64.2583Z" fill="black"/>
<path d="M106.058 74.7083H102.575V78.1917H106.058V74.7083Z" fill="black"/>
<path d="M106.058 81.675H102.575V85.1583H106.058V81.675Z" fill="black"/>
<path d="M106.058 88.6417H102.575V92.125H106.058V88.6417Z" fill="black"/>
<path d="M106.058 95.6083H102.575V99.0917H106.058V95.6083Z" fill="black"/>
<path d="M106.058 99.0917H102.575V102.575H106.058V99.0917Z" fill="black"/>
<path d="M8.52484 5.04167H5.0415V8.52501H8.52484V5.04167Z" fill="black"/>
<path d="M8.52484 8.52501H5.0415V12.0083H8.52484V8.52501Z" fill="black"/>
<path d="M8.52484 12.0083H5.0415V15.4917H8.52484V12.0083Z" fill="black"/>
<path d="M8.52484 15.4917H5.0415V18.975H8.52484V15.4917Z" fill="black"/>
<path d="M8.52484 18.975H5.0415V22.4583H8.52484V18.975Z" fill="black"/>
<path d="M8.52484 22.4583H5.0415V25.9417H8.52484V22.4583Z" fill="black"/>
<path d="M8.52484 25.9417H5.0415V29.425H8.52484V25.9417Z" fill="black"/>
<path d="M12.0082 5.04167H8.5249V8.52501H12.0082V5.04167Z" fill="black"/>
<path d="M12.0082 25.9417H8.5249V29.425H12.0082V25.9417Z" fill="black"/>
<path d="M15.4916 5.04167H12.0083V8.52501H15.4916V5.04167Z" fill="black"/>
<path d="M15.4916 25.9417H12.0083V29.425H15.4916V25.9417Z" fill="black"/>
<path d="M18.975 5.04167H15.4917V8.52501H18.975V5.04167Z" fill="black"/>
<path d="M18.975 25.9417H15.4917V29.425H18.975V25.9417Z" fill="black"/>
<path d="M22.4579 5.04167H18.9746V8.52501H22.4579V5.04167Z" fill="black"/>
<path d="M22.4579 25.9417H18.9746V29.425H22.4579V25.9417Z" fill="black"/>
<path d="M25.9413 5.04167H22.458V8.52501H25.9413V5.04167Z" fill="black"/>
<path d="M25.9413 25.9417H22.458V29.425H25.9413V25.9417Z" fill="black"/>
<path d="M29.4247 5.04167H25.9414V8.52501H29.4247V5.04167Z" fill="black"/>
<path d="M29.4247 8.52501H25.9414V12.0083H29.4247V8.52501Z" fill="black"/>
<path d="M29.4247 12.0083H25.9414V15.4917H29.4247V12.0083Z" fill="black"/>
<path d="M29.4247 15.4917H25.9414V18.975H29.4247V15.4917Z" fill="black"/>
<path d="M29.4247 18.975H25.9414V22.4583H29.4247V18.975Z" fill="black"/>
<path d="M29.4247 22.4583H25.9414V25.9417H29.4247V22.4583Z" fill="black"/>
<path d="M29.4247 25.9417H25.9414V29.425H29.4247V25.9417Z" fill="black"/>
<path d="M15.4916 12.0083H12.0083V15.4917H15.4916V12.0083Z" fill="black"/>
<path d="M15.4916 15.4917H12.0083V18.975H15.4916V15.4917Z" fill="black"/>
<path d="M15.4916 18.975H12.0083V22.4583H15.4916V18.975Z" fill="black"/>
<path d="M18.975 12.0083H15.4917V15.4917H18.975V12.0083Z" fill="black"/>
<path d="M18.975 15.4917H15.4917V18.975H18.975V15.4917Z" fill="black"/>
<path d="M18.975 18.975H15.4917V22.4583H18.975V18.975Z" fill="black"/>
<path d="M22.4584 12.0083H18.9751V15.4917H22.4584V12.0083Z" fill="black"/>
<path d="M22.4584 15.4917H18.9751V18.975H22.4584V15.4917Z" fill="black"/>
<path d="M22.4584 18.975H18.9751V22.4583H22.4584V18.975Z" fill="black"/>
<path d="M85.1581 5.04167H81.6748V8.52501H85.1581V5.04167Z" fill="black"/>
<path d="M85.1581 8.52501H81.6748V12.0083H85.1581V8.52501Z" fill="black"/>
<path d="M85.1581 12.0083H81.6748V15.4917H85.1581V12.0083Z" fill="black"/>
<path d="M85.1581 15.4917H81.6748V18.975H85.1581V15.4917Z" fill="black"/>
<path d="M85.1581 18.975H81.6748V22.4583H85.1581V18.975Z" fill="black"/>
<path d="M85.1581 22.4583H81.6748V25.9417H85.1581V22.4583Z" fill="black"/>
<path d="M85.1581 25.9417H81.6748V29.425H85.1581V25.9417Z" fill="black"/>
<path d="M88.6415 5.04167H85.1582V8.52501H88.6415V5.04167Z" fill="black"/>
<path d="M88.6415 25.9417H85.1582V29.425H88.6415V25.9417Z" fill="black"/>
<path d="M92.1249 5.04167H88.6416V8.52501H92.1249V5.04167Z" fill="black"/>
<path d="M92.1249 25.9417H88.6416V29.425H92.1249V25.9417Z" fill="black"/>
<path d="M95.6083 5.04167H92.125V8.52501H95.6083V5.04167Z" fill="black"/>
<path d="M95.6083 25.9417H92.125V29.425H95.6083V25.9417Z" fill="black"/>
<path d="M99.0912 5.04167H95.6079V8.52501H99.0912V5.04167Z" fill="black"/>
<path d="M99.0912 25.9417H95.6079V29.425H99.0912V25.9417Z" fill="black"/>
<path d="M102.575 5.04167H99.0913V8.52501H102.575V5.04167Z" fill="black"/>
<path d="M102.575 25.9417H99.0913V29.425H102.575V25.9417Z" fill="black"/>
<path d="M106.058 5.04167H102.575V8.52501H106.058V5.04167Z" fill="black"/>
<path d="M106.058 8.52501H102.575V12.0083H106.058V8.52501Z" fill="black"/>
<path d="M106.058 12.0083H102.575V15.4917H106.058V12.0083Z" fill="black"/>
<path d="M106.058 15.4917H102.575V18.975H106.058V15.4917Z" fill="black"/>
<path d="M106.058 18.975H102.575V22.4583H106.058V18.975Z" fill="black"/>
<path d="M106.058 22.4583H102.575V25.9417H106.058V22.4583Z" fill="black"/>
<path d="M106.058 25.9417H102.575V29.425H106.058V25.9417Z" fill="black"/>
<path d="M92.1249 12.0083H88.6416V15.4917H92.1249V12.0083Z" fill="black"/>
<path d="M92.1249 15.4917H88.6416V18.975H92.1249V15.4917Z" fill="black"/>
<path d="M92.1249 18.975H88.6416V22.4583H92.1249V18.975Z" fill="black"/>
<path d="M95.6083 12.0083H92.125V15.4917H95.6083V12.0083Z" fill="black"/>
<path d="M95.6083 15.4917H92.125V18.975H95.6083V15.4917Z" fill="black"/>
<path d="M95.6083 18.975H92.125V22.4583H95.6083V18.975Z" fill="black"/>
<path d="M99.0917 12.0083H95.6084V15.4917H99.0917V12.0083Z" fill="black"/>
<path d="M99.0917 15.4917H95.6084V18.975H99.0917V15.4917Z" fill="black"/>
<path d="M99.0917 18.975H95.6084V22.4583H99.0917V18.975Z" fill="black"/>
<path d="M8.52484 81.675H5.0415V85.1583H8.52484V81.675Z" fill="black"/>
<path d="M8.52484 85.1583H5.0415V88.6417H8.52484V85.1583Z" fill="black"/>
<path d="M8.52484 88.6417H5.0415V92.125H8.52484V88.6417Z" fill="black"/>
<path d="M8.52484 92.125H5.0415V95.6083H8.52484V92.125Z" fill="black"/>
<path d="M8.52484 95.6083H5.0415V99.0917H8.52484V95.6083Z" fill="black"/>
<path d="M8.52484 99.0917H5.0415V102.575H8.52484V99.0917Z" fill="black"/>
<path d="M8.52484 102.575H5.0415V106.058H8.52484V102.575Z" fill="black"/>
<path d="M12.0082 81.675H8.5249V85.1583H12.0082V81.675Z" fill="black"/>
<path d="M12.0082 102.575H8.5249V106.058H12.0082V102.575Z" fill="black"/>
<path d="M15.4916 81.675H12.0083V85.1583H15.4916V81.675Z" fill="black"/>
<path d="M15.4916 102.575H12.0083V106.058H15.4916V102.575Z" fill="black"/>
<path d="M18.975 81.675H15.4917V85.1583H18.975V81.675Z" fill="black"/>
<path d="M18.975 102.575H15.4917V106.058H18.975V102.575Z" fill="black"/>
<path d="M22.4579 81.675H18.9746V85.1583H22.4579V81.675Z" fill="black"/>
<path d="M22.4579 102.575H18.9746V106.058H22.4579V102.575Z" fill="black"/>
<path d="M25.9413 81.675H22.458V85.1583H25.9413V81.675Z" fill="black"/>
<path d="M25.9413 102.575H22.458V106.058H25.9413V102.575Z" fill="black"/>
<path d="M29.4247 81.675H25.9414V85.1583H29.4247V81.675Z" fill="black"/>
<path d="M29.4247 85.1583H25.9414V88.6417H29.4247V85.1583Z" fill="black"/>
<path d="M29.4247 88.6417H25.9414V92.125H29.4247V88.6417Z" fill="black"/>
<path d="M29.4247 92.125H25.9414V95.6083H29.4247V92.125Z" fill="black"/>
<path d="M29.4247 95.6083H25.9414V99.0917H29.4247V95.6083Z" fill="black"/>
<path d="M29.4247 99.0917H25.9414V102.575H29.4247V99.0917Z" fill="black"/>
<path d="M29.4247 102.575H25.9414V106.058H29.4247V102.575Z" fill="black"/>
<path d="M15.4916 88.6417H12.0083V92.125H15.4916V88.6417Z" fill="black"/>
<path d="M15.4916 92.125H12.0083V95.6083H15.4916V92.125Z" fill="black"/>
<path d="M15.4916 95.6083H12.0083V99.0917H15.4916V95.6083Z" fill="black"/>
<path d="M18.975 88.6417H15.4917V92.125H18.975V88.6417Z" fill="black"/>
<path d="M18.975 92.125H15.4917V95.6083H18.975V92.125Z" fill="black"/>
<path d="M18.975 95.6083H15.4917V99.0917H18.975V95.6083Z" fill="black"/>
<path d="M22.4584 88.6417H18.9751V92.125H22.4584V88.6417Z" fill="black"/>
<path d="M22.4584 92.125H18.9751V95.6083H22.4584V92.125Z" fill="black"/>
<path d="M22.4584 95.6083H18.9751V99.0917H22.4584V95.6083Z" fill="black"/>
</svg>
