<svg width="15" height="15" viewBox="0 0 15 15" fill="none" xmlns="http://www.w3.org/2000/svg">
<path d="M7.5 15C8.98336 15 10.4334 14.5601 11.6668 13.736C12.9001 12.9119 13.8614 11.7406 14.4291 10.3701C14.9967 8.99968 15.1453 7.49168 14.8559 6.03683C14.5665 4.58197 13.8522 3.2456 12.8033 2.1967C11.7544 1.14781 10.418 0.433503 8.96317 0.144114C7.50832 -0.145275 6.00032 0.00324963 4.62987 0.570907C3.25943 1.13856 2.08809 2.09986 1.26398 3.33323C0.439867 4.56659 0 6.01664 0 7.5C0 9.48913 0.790176 11.3968 2.1967 12.8033C2.89314 13.4997 3.71993 14.0522 4.62987 14.4291C5.53981 14.806 6.51508 15 7.5 15ZM4.71975 6.96975C4.78936 6.90008 4.87202 6.84481 4.963 6.8071C5.05399 6.76939 5.15151 6.74998 5.25 6.74998C5.34849 6.74998 5.44601 6.76939 5.53699 6.8071C5.62798 6.84481 5.71064 6.90008 5.78025 6.96975L6.75 7.93943L9.21975 5.46975C9.3612 5.33313 9.55065 5.25754 9.7473 5.25925C9.94394 5.26096 10.1321 5.33983 10.2711 5.47889C10.4102 5.61794 10.489 5.80605 10.4908 6.0027C10.4925 6.19935 10.4169 6.3888 10.2802 6.53025L7.28025 9.53025C7.21063 9.59992 7.12797 9.65518 7.03699 9.69289C6.946 9.73059 6.84848 9.75 6.75 9.75C6.65151 9.75 6.55399 9.73059 6.46301 9.69289C6.37203 9.65518 6.28936 9.59992 6.21975 9.53025L4.71975 8.03025C4.65007 7.96064 4.5948 7.87798 4.55709 7.787C4.51938 7.69601 4.49997 7.59849 4.49997 7.5C4.49997 7.40151 4.51938 7.30399 4.55709 7.21301C4.5948 7.12202 4.65007 7.03936 4.71975 6.96975Z" fill="#0EBC3F"/>
</svg>
